<svg width="54" height="50" viewBox="0 0 54 50" fill="none" xmlns="http://www.w3.org/2000/svg">
<g clip-path="url(#clip0_197403_507)">
<path d="M36.5002 13.5003H33.3335C33.3335 10.0012 30.4993 7.16699 27.0002 7.16699C23.501 7.16699 20.6668 10.0012 20.6668 13.5003H17.5002C15.7585 13.5003 14.3335 14.9253 14.3335 16.667V35.667C14.3335 37.4087 15.7585 38.8337 17.5002 38.8337H36.5002C38.2418 38.8337 39.6668 37.4087 39.6668 35.667V16.667C39.6668 14.9253 38.2418 13.5003 36.5002 13.5003ZM27.0002 10.3337C28.7418 10.3337 30.1668 11.7587 30.1668 13.5003H23.8335C23.8335 11.7587 25.2585 10.3337 27.0002 10.3337ZM36.5002 35.667H17.5002V16.667H20.6668V19.8337C20.6668 20.7045 21.3793 21.417 22.2502 21.417C23.121 21.417 23.8335 20.7045 23.8335 19.8337V16.667H30.1668V19.8337C30.1668 20.7045 30.8793 21.417 31.7502 21.417C32.621 21.417 33.3335 20.7045 33.3335 19.8337V16.667H36.5002V35.667Z" fill="#002F52"/>
</g>
<defs>
<clipPath id="clip0_197403_507">
<rect width="38" height="38" fill="white" transform="translate(8 4)"/>
</clipPath>
</defs>
</svg>
